<svg xmlns="http://www.w3.org/2000/svg" viewBox="0 0 100 100">
  <circle cx="50" cy="50" r="48" fill="#f6b3a2" stroke="undefined" stroke-width="3"/>
  <circle cx="50" cy="50" r="44" fill="none" stroke="undefined" stroke-width="0.8" opacity="0.5"/>
  <g transform="translate(50 51)">
      <path d="M2,-31 C-6,-19 -13,-13 -17,-5 C-22,5 -19,17 -9,23
               C-14,14 -11,7 -5,3 C-6,11 -2,16 4,17 C-1,11 1,5 6,1
               C7,9 13,12 15,19 C22,11 22,-1 15,-10 C10,-16 5,-23 2,-31 Z"
            fill="#3d0f0a"/>
      <path d="M0,-5 C-5,2 -4,10 1,14 C5,10 6,3 2,-3 Z" fill="#f6b3a2" opacity="0.55"/>
    </g>
</svg>