<svg xmlns="http://www.w3.org/2000/svg" viewBox="0 0 500 700" preserveAspectRatio="xMidYMid slice">
  
    <defs>
      <radialGradient id="bg" cx="50%" cy="40%" r="70%">
        <stop offset="0%" stop-color="#2a1f14"/>
        <stop offset="60%" stop-color="#15100a"/>
        <stop offset="100%" stop-color="#05030a"/>
      </radialGradient>
      <radialGradient id="glow" cx="50%" cy="45%" r="55%">
        <stop offset="0%" stop-color="#f0e4c8" stop-opacity="0.35"/>
        <stop offset="100%" stop-color="#f0e4c8" stop-opacity="0"/>
      </radialGradient>
      <linearGradient id="border" x1="0%" y1="0%" x2="100%" y2="100%">
        <stop offset="0%" stop-color="#c9a961"/>
        <stop offset="50%" stop-color="#7d6740"/>
        <stop offset="100%" stop-color="#c9a961"/>
      </linearGradient>
    </defs>
    <rect width="500" height="700" fill="url(#bg)"/>
    <rect width="500" height="700" fill="url(#glow)"/>
    <rect x="10" y="10" width="480" height="680" fill="none" stroke="url(#border)" stroke-width="2" rx="6"/>
    <rect x="20" y="20" width="460" height="660" fill="none" stroke="#f0e4c8" stroke-width="0.5" opacity="0.4" rx="4"/>
  
  
    <text x="250" y="80" text-anchor="middle" font-family="Cinzel, serif" font-size="32" font-weight="600" fill="#f0e4c8" letter-spacing="4">ANGEL</text>
    <line x1="120" y1="100" x2="380" y2="100" stroke="#f0e4c8" stroke-width="0.8" opacity="0.5"/>
    <text x="250" y="650" text-anchor="middle" font-family="Cinzel, serif" font-size="14" fill="#9a8765" letter-spacing="3" opacity="0.8">4/4 FLYING</text>
  
  <g transform="translate(250 372)">
    <circle r="168" fill="none" stroke="#f0e4c8" stroke-width="1" opacity="0.22"/>
    <circle r="152" fill="none" stroke="#f0e4c8" stroke-width="2.5" opacity="0.5"/>
    <circle r="144" fill="#3c3524" opacity="0.35"/>
    <g stroke="#f0e4c8" stroke-width="1" opacity="0.3">
      <line x1="-152" y1="0" x2="-168" y2="0"/><line x1="152" y1="0" x2="168" y2="0"/>
      <line x1="0" y1="-152" x2="0" y2="-168"/><line x1="0" y1="152" x2="0" y2="168"/>
    </g>
    
      <g fill="#e4d6b4" stroke="#2c2618" stroke-width="2" stroke-linejoin="round">
        <path d="M-16,-34 C-52,-58 -94,-60 -122,-40 C-96,-32 -72,-16 -56,6
                 C-42,-10 -28,-22 -16,-28 Z"/>
        <path d="M16,-34 C52,-58 94,-60 122,-40 C96,-32 72,-16 56,6
                 C42,-10 28,-22 16,-28 Z"/>
        <path d="M-18,-40 C-42,-32 -70,-14 -84,10 C-62,8 -40,14 -24,26
                 C-24,4 -22,-18 -18,-34 Z" opacity="0.75"/>
        <path d="M18,-40 C42,-32 70,-14 84,10 C62,8 40,14 24,26
                 C24,4 22,-18 18,-34 Z" opacity="0.75"/>
        <path d="M-24,78 L-16,4 C-26,-6 -22,-22 -8,-26 L-8,-34
                 C-22,-42 -18,-62 0,-62 C18,-62 22,-42 8,-34 L8,-26
                 C22,-22 26,-6 16,4 L24,78 Z"/>
      </g>
      <ellipse cx="0" cy="-78" rx="26" ry="7" fill="none" stroke="#f5d98f" stroke-width="4"/>
      <path d="M0,10 L0,88 M-16,28 L16,28" stroke="#f5d98f" stroke-width="5" stroke-linecap="round"/>
  </g>
</svg>