<svg xmlns="http://www.w3.org/2000/svg" viewBox="0 0 500 700" preserveAspectRatio="xMidYMid slice">
  
    <defs>
      <radialGradient id="bg" cx="50%" cy="40%" r="70%">
        <stop offset="0%" stop-color="#2a1f14"/>
        <stop offset="60%" stop-color="#15100a"/>
        <stop offset="100%" stop-color="#05030a"/>
      </radialGradient>
      <radialGradient id="glow" cx="50%" cy="45%" r="55%">
        <stop offset="0%" stop-color="#fffbe6" stop-opacity="0.35"/>
        <stop offset="100%" stop-color="#fffbe6" stop-opacity="0"/>
      </radialGradient>
      <linearGradient id="border" x1="0%" y1="0%" x2="100%" y2="100%">
        <stop offset="0%" stop-color="#c9a961"/>
        <stop offset="50%" stop-color="#7d6740"/>
        <stop offset="100%" stop-color="#c9a961"/>
      </linearGradient>
    </defs>
    <rect width="500" height="700" fill="url(#bg)"/>
    <rect width="500" height="700" fill="url(#glow)"/>
    <rect x="10" y="10" width="480" height="680" fill="none" stroke="url(#border)" stroke-width="2" rx="6"/>
    <rect x="20" y="20" width="460" height="660" fill="none" stroke="#fffbe6" stroke-width="0.5" opacity="0.4" rx="4"/>
  
  
    <text x="250" y="80" text-anchor="middle" font-family="Cinzel, serif" font-size="32" font-weight="600" fill="#fffbe6" letter-spacing="4">ANGEL</text>
    <line x1="120" y1="100" x2="380" y2="100" stroke="#fffbe6" stroke-width="0.8" opacity="0.5"/>
    <text x="250" y="650" text-anchor="middle" font-family="Cinzel, serif" font-size="14" fill="#9a8765" letter-spacing="3" opacity="0.8">4/4 WHITE</text>
  
  <g transform="translate(250 360)">
      <circle cx="0" cy="-60" r="20" fill="#fffbe6"/>
      <ellipse cx="0" cy="-50" rx="6" ry="10" fill="#f5e9d0"/>
      <rect x="-12" y="-30" width="24" height="60" fill="#fffbe6"/>
      <path d="M -15 -20 Q -90 -10 -70 50 Q -40 30 -15 20 Z" fill="#fffbe6" opacity="0.85"/>
      <path d="M 15 -20 Q 90 -10 70 50 Q 40 30 15 20 Z" fill="#fffbe6" opacity="0.85"/>
      <circle cx="0" cy="-90" r="14" fill="none" stroke="#c9a961" stroke-width="2"/>
    </g>
</svg>