<svg xmlns="http://www.w3.org/2000/svg" viewBox="0 0 500 700" preserveAspectRatio="xMidYMid slice">
  
    <defs>
      <radialGradient id="bg" cx="50%" cy="40%" r="70%">
        <stop offset="0%" stop-color="#2a1f14"/>
        <stop offset="60%" stop-color="#15100a"/>
        <stop offset="100%" stop-color="#05030a"/>
      </radialGradient>
      <radialGradient id="glow" cx="50%" cy="45%" r="55%">
        <stop offset="0%" stop-color="#9fc757" stop-opacity="0.35"/>
        <stop offset="100%" stop-color="#9fc757" stop-opacity="0"/>
      </radialGradient>
      <linearGradient id="border" x1="0%" y1="0%" x2="100%" y2="100%">
        <stop offset="0%" stop-color="#c9a961"/>
        <stop offset="50%" stop-color="#7d6740"/>
        <stop offset="100%" stop-color="#c9a961"/>
      </linearGradient>
    </defs>
    <rect width="500" height="700" fill="url(#bg)"/>
    <rect width="500" height="700" fill="url(#glow)"/>
    <rect x="10" y="10" width="480" height="680" fill="none" stroke="url(#border)" stroke-width="2" rx="6"/>
    <rect x="20" y="20" width="460" height="660" fill="none" stroke="#9fc757" stroke-width="0.5" opacity="0.4" rx="4"/>
  
  
    <text x="250" y="80" text-anchor="middle" font-family="Cinzel, serif" font-size="32" font-weight="600" fill="#9fc757" letter-spacing="4">INSECT</text>
    <line x1="120" y1="100" x2="380" y2="100" stroke="#9fc757" stroke-width="0.8" opacity="0.5"/>
    <text x="250" y="650" text-anchor="middle" font-family="Cinzel, serif" font-size="14" fill="#9a8765" letter-spacing="3" opacity="0.8">1/1 GREEN</text>
  
  <g transform="translate(250 360)" fill="#9fc757">
      <ellipse cx="0" cy="0" rx="30" ry="55"/>
      <circle cx="0" cy="-50" r="20"/>
      <line x1="-15" y1="-65" x2="-30" y2="-90" stroke="#9fc757" stroke-width="3"/>
      <line x1="15" y1="-65" x2="30" y2="-90" stroke="#9fc757" stroke-width="3"/>
      <ellipse cx="-50" cy="-10" rx="25" ry="40" fill="#9fc757" opacity="0.5" transform="rotate(-20 -50 -10)"/>
      <ellipse cx="50" cy="-10" rx="25" ry="40" fill="#9fc757" opacity="0.5" transform="rotate(20 50 -10)"/>
      <line x1="-20" y1="20" x2="-50" y2="40" stroke="#1a2a05" stroke-width="2"/>
      <line x1="20" y1="20" x2="50" y2="40" stroke="#1a2a05" stroke-width="2"/>
    </g>
</svg>