<svg xmlns="http://www.w3.org/2000/svg" viewBox="0 0 500 700" preserveAspectRatio="xMidYMid slice">
  
    <defs>
      <radialGradient id="bg" cx="50%" cy="40%" r="70%">
        <stop offset="0%" stop-color="#2a1f14"/>
        <stop offset="60%" stop-color="#15100a"/>
        <stop offset="100%" stop-color="#05030a"/>
      </radialGradient>
      <radialGradient id="glow" cx="50%" cy="45%" r="55%">
        <stop offset="0%" stop-color="#8fbf6a" stop-opacity="0.35"/>
        <stop offset="100%" stop-color="#8fbf6a" stop-opacity="0"/>
      </radialGradient>
      <linearGradient id="border" x1="0%" y1="0%" x2="100%" y2="100%">
        <stop offset="0%" stop-color="#c9a961"/>
        <stop offset="50%" stop-color="#7d6740"/>
        <stop offset="100%" stop-color="#c9a961"/>
      </linearGradient>
    </defs>
    <rect width="500" height="700" fill="url(#bg)"/>
    <rect width="500" height="700" fill="url(#glow)"/>
    <rect x="10" y="10" width="480" height="680" fill="none" stroke="url(#border)" stroke-width="2" rx="6"/>
    <rect x="20" y="20" width="460" height="660" fill="none" stroke="#8fbf6a" stroke-width="0.5" opacity="0.4" rx="4"/>
  
  
    <text x="250" y="80" text-anchor="middle" font-family="Cinzel, serif" font-size="32" font-weight="600" fill="#8fbf6a" letter-spacing="4">SAPROLING</text>
    <line x1="120" y1="100" x2="380" y2="100" stroke="#8fbf6a" stroke-width="0.8" opacity="0.5"/>
    <text x="250" y="650" text-anchor="middle" font-family="Cinzel, serif" font-size="14" fill="#9a8765" letter-spacing="3" opacity="0.8">1/1 GREEN</text>
  
  <g transform="translate(250 372)">
    <circle r="168" fill="none" stroke="#8fbf6a" stroke-width="1" opacity="0.22"/>
    <circle r="152" fill="none" stroke="#8fbf6a" stroke-width="2.5" opacity="0.5"/>
    <circle r="144" fill="#1d3216" opacity="0.35"/>
    <g stroke="#8fbf6a" stroke-width="1" opacity="0.3">
      <line x1="-152" y1="0" x2="-168" y2="0"/><line x1="152" y1="0" x2="168" y2="0"/>
      <line x1="0" y1="-152" x2="0" y2="-168"/><line x1="0" y1="152" x2="0" y2="168"/>
    </g>
    
      <g fill="#5f8f44" stroke="#12210d" stroke-width="2.5" stroke-linejoin="round">
        <path d="M-24,76 L-18,16 C-34,8 -34,-14 -18,-22 L-18,-34
                 C-18,-52 18,-52 18,-34 L18,-22 C34,-14 34,8 18,16 L24,76 Z"/>
        <path d="M-20,-4 C-52,-16 -78,-8 -86,10 C-64,14 -40,14 -20,10 Z"/>
        <path d="M20,-4 C52,-16 78,-8 86,10 C64,14 40,14 20,10 Z"/>
      </g>
      <path d="M0,-48 C-30,-56 -46,-84 -34,-108 C-12,-102 2,-76 0,-48 Z" fill="#7fb857" stroke="#12210d" stroke-width="2.5"/>
      <path d="M0,-48 C30,-56 46,-84 34,-108 C12,-102 -2,-76 0,-48 Z" fill="#9fd07a" stroke="#12210d" stroke-width="2.5"/>
      <g fill="#0f1c0b"><circle cx="-9" cy="-14" r="4"/><circle cx="9" cy="-14" r="4"/></g>
  </g>
</svg>