<svg xmlns="http://www.w3.org/2000/svg" viewBox="0 0 500 700" preserveAspectRatio="xMidYMid slice">
  
    <defs>
      <radialGradient id="bg" cx="50%" cy="40%" r="70%">
        <stop offset="0%" stop-color="#2a1f14"/>
        <stop offset="60%" stop-color="#15100a"/>
        <stop offset="100%" stop-color="#05030a"/>
      </radialGradient>
      <radialGradient id="glow" cx="50%" cy="45%" r="55%">
        <stop offset="0%" stop-color="#a0a0b0" stop-opacity="0.35"/>
        <stop offset="100%" stop-color="#a0a0b0" stop-opacity="0"/>
      </radialGradient>
      <linearGradient id="border" x1="0%" y1="0%" x2="100%" y2="100%">
        <stop offset="0%" stop-color="#c9a961"/>
        <stop offset="50%" stop-color="#7d6740"/>
        <stop offset="100%" stop-color="#c9a961"/>
      </linearGradient>
    </defs>
    <rect width="500" height="700" fill="url(#bg)"/>
    <rect width="500" height="700" fill="url(#glow)"/>
    <rect x="10" y="10" width="480" height="680" fill="none" stroke="url(#border)" stroke-width="2" rx="6"/>
    <rect x="20" y="20" width="460" height="660" fill="none" stroke="#a0a0b0" stroke-width="0.5" opacity="0.4" rx="4"/>
  
  
    <text x="250" y="80" text-anchor="middle" font-family="Cinzel, serif" font-size="32" font-weight="600" fill="#a0a0b0" letter-spacing="4">THOPTER</text>
    <line x1="120" y1="100" x2="380" y2="100" stroke="#a0a0b0" stroke-width="0.8" opacity="0.5"/>
    <text x="250" y="650" text-anchor="middle" font-family="Cinzel, serif" font-size="14" fill="#9a8765" letter-spacing="3" opacity="0.8">1/1 ARTIFACT</text>
  
  <g transform="translate(250 360)" fill="#a0a0b0">
      <rect x="-20" y="-15" width="40" height="30" rx="4"/>
      <circle cx="0" cy="0" r="8" fill="#5a5a6a"/>
      <line x1="0" y1="-15" x2="0" y2="-50" stroke="#a0a0b0" stroke-width="3"/>
      <ellipse cx="-50" cy="-50" rx="55" ry="8" fill="#a0a0b0" opacity="0.6"/>
      <ellipse cx="50" cy="-50" rx="55" ry="8" fill="#a0a0b0" opacity="0.6"/>
      <polygon points="-15,15 -25,40 0,30 25,40 15,15" fill="#7a7a8a"/>
    </g>
</svg>